<svg xmlns="http://www.w3.org/2000/svg" width="510" height="511" fill="none" viewBox="0 0 510 511" id="menu">
  <path fill="#000" fill-rule="evenodd" d="M181 266C186.523 266 191 261.523 191 256 191 250.477 186.523 246 181 246 175.477 246 171 250.477 171 256 171 261.523 175.477 266 181 266zM156 256C156 269.807 167.193 281 181 281 194.807 281 206 269.807 206 256 206 242.193 194.807 231 181 231 167.193 231 156 242.193 156 256zM256 266C261.523 266 266 261.523 266 256 266 250.477 261.523 246 256 246 250.477 246 246 250.477 246 256 246 261.523 250.477 266 256 266zM231 256C231 269.807 242.193 281 256 281 269.807 281 281 269.807 281 256 281 242.193 269.807 231 256 231 242.193 231 231 242.193 231 256zM331 266C336.523 266 341 261.523 341 256 341 250.477 336.523 246 331 246 325.477 246 321 250.477 321 256 321 261.523 325.477 266 331 266zM306 256C306 269.807 317.193 281 331 281 344.807 281 356 269.807 356 256 356 242.193 344.807 231 331 231 317.193 231 306 242.193 306 256z" clip-rule="evenodd"></path>
</svg>
